<svg xmlns="http://www.w3.org/2000/svg" viewBox="0 0 240 240" role="img" aria-label="Mango passion fruit">
  <defs>
    <radialGradient id="bg" cx="35%" cy="28%" r="75%">
      <stop offset="0" stop-color="#ffd46c"/>
      <stop offset="1" stop-color="#e88930"/>
    </radialGradient>
    <filter id="soft" x="-20%" y="-20%" width="140%" height="140%">
      <feDropShadow dx="0" dy="12" stdDeviation="10" flood-color="#3b2218" flood-opacity=".22"/>
    </filter>
    <linearGradient id="shine" x1="0" y1="0" x2="1" y2="1">
      <stop offset="0" stop-color="#fffaf3" stop-opacity=".9"/>
      <stop offset="1" stop-color="#fffaf3" stop-opacity="0"/>
    </linearGradient>
  </defs>
  <rect width="240" height="240" rx="120" fill="url(#bg)"/>
  <circle cx="58" cy="48" r="42" fill="url(#shine)" opacity=".38"/>
  <g filter="url(#soft)">
  <path d="M63 145c18-58 70-82 117-54-11 62-60 94-117 54z" fill="#ffb23d"/>
  <path d="M88 139c22-36 49-51 82-49" fill="none" stroke="#ffdf80" stroke-width="10" stroke-linecap="round"/>
  <circle cx="158" cy="148" r="31" fill="#6f3b55"/><circle cx="158" cy="148" r="21" fill="#ffd663"/>
  <g fill="#3f2634"><circle cx="149" cy="143" r="3"/><circle cx="162" cy="137" r="3"/><circle cx="169" cy="152" r="3"/><circle cx="155" cy="158" r="3"/></g>
</g>
  <circle cx="120" cy="120" r="112" fill="none" stroke="#fff8f0" stroke-opacity=".55" stroke-width="6"/>
</svg>