<svg xmlns="http://www.w3.org/2000/svg" viewBox="0 0 240 240" role="img" aria-label="Snickers caramel nut">
  <defs>
    <radialGradient id="bg" cx="35%" cy="28%" r="75%">
      <stop offset="0" stop-color="#be7a3f"/>
      <stop offset="1" stop-color="#4b2617"/>
    </radialGradient>
    <filter id="soft" x="-20%" y="-20%" width="140%" height="140%">
      <feDropShadow dx="0" dy="12" stdDeviation="10" flood-color="#3b2218" flood-opacity=".22"/>
    </filter>
    <linearGradient id="shine" x1="0" y1="0" x2="1" y2="1">
      <stop offset="0" stop-color="#fffaf3" stop-opacity=".9"/>
      <stop offset="1" stop-color="#fffaf3" stop-opacity="0"/>
    </linearGradient>
  </defs>
  <rect width="240" height="240" rx="120" fill="url(#bg)"/>
  <circle cx="58" cy="48" r="42" fill="url(#shine)" opacity=".38"/>
  <g filter="url(#soft)">
  <path d="M52 125c31-34 86-48 137-24-5 46-54 74-107 55-15-5-24-15-30-31z" fill="#5b2d1a"/>
  <path d="M67 118c32-17 77-26 116-12" stroke="#d9954f" stroke-width="18" stroke-linecap="round"/>
  <circle cx="89" cy="104" r="13" fill="#f0c27c"/><circle cx="135" cy="95" r="14" fill="#dba55d"/><circle cx="161" cy="133" r="12" fill="#f1c783"/>
  <path d="M70 150c33 12 72 15 112-7" stroke="#f4c26c" stroke-width="7" stroke-linecap="round" opacity=".75"/>
</g>
  <circle cx="120" cy="120" r="112" fill="none" stroke="#fff8f0" stroke-opacity=".55" stroke-width="6"/>
</svg>