<svg xmlns="http://www.w3.org/2000/svg" viewBox="0 0 240 240" role="img" aria-label="Strawberry mascarpone">
  <defs>
    <radialGradient id="bg" cx="35%" cy="28%" r="75%">
      <stop offset="0" stop-color="#ffc0c7"/>
      <stop offset="1" stop-color="#c93b58"/>
    </radialGradient>
    <filter id="soft" x="-20%" y="-20%" width="140%" height="140%">
      <feDropShadow dx="0" dy="12" stdDeviation="10" flood-color="#3b2218" flood-opacity=".22"/>
    </filter>
    <linearGradient id="shine" x1="0" y1="0" x2="1" y2="1">
      <stop offset="0" stop-color="#fffaf3" stop-opacity=".9"/>
      <stop offset="1" stop-color="#fffaf3" stop-opacity="0"/>
    </linearGradient>
  </defs>
  <rect width="240" height="240" rx="120" fill="url(#bg)"/>
  <circle cx="58" cy="48" r="42" fill="url(#shine)" opacity=".38"/>
  <g filter="url(#soft)">
  <path d="M83 86c31-22 75-8 82 31 8 43-31 74-50 83-18-10-57-40-51-82 2-15 8-25 19-32z" fill="#d83b56"/>
  <path d="M89 83c18-20 53-24 72 1" fill="none" stroke="#7fa45c" stroke-width="10" stroke-linecap="round"/>
  <g fill="#ffe4c9"><circle cx="98" cy="119" r="3"/><circle cx="126" cy="112" r="3"/><circle cx="145" cy="137" r="3"/><circle cx="109" cy="152" r="3"/><circle cx="130" cy="170" r="3"/></g>
  <circle cx="170" cy="86" r="20" fill="#fff7ed"/>
</g>
  <circle cx="120" cy="120" r="112" fill="none" stroke="#fff8f0" stroke-opacity=".55" stroke-width="6"/>
</svg>